<?xml version="1.0" encoding="iso-8859-1"?>
<!-- Generator: Adobe Illustrator 20.1.0, SVG Export Plug-In . SVG Version: 6.00 Build 0)  -->
<svg xmlns="http://www.w3.org/2000/svg" xmlns:xlink="http://www.w3.org/1999/xlink" version="1.1" id="&#1057;&#1083;&#1086;&#1081;_1" x="0px" y="0px" viewBox="0 0 64 64" style="enable-background:new 0 0 64 64;" xml:space="preserve" width="64px" height="64px">
<linearGradient id="SVGID_1__44054" gradientUnits="userSpaceOnUse" x1="41" y1="33.3333" x2="41" y2="42.6667" spreadMethod="reflect">
	<stop offset="0" style="stop-color:#6DC7FF"/>
	<stop offset="1" style="stop-color:#E6ABFF"/>
</linearGradient>
<circle style="fill:url(#SVGID_1__44054);" cx="41" cy="38" r="4"/>
<linearGradient id="SVGID_2__44054" gradientUnits="userSpaceOnUse" x1="23" y1="33.3333" x2="23" y2="42.6667" spreadMethod="reflect">
	<stop offset="0" style="stop-color:#6DC7FF"/>
	<stop offset="1" style="stop-color:#E6ABFF"/>
</linearGradient>
<circle style="fill:url(#SVGID_2__44054);" cx="23" cy="38" r="4"/>
<linearGradient id="SVGID_3__44054" gradientUnits="userSpaceOnUse" x1="32" y1="7.25" x2="32" y2="56.5006" spreadMethod="reflect">
	<stop offset="0" style="stop-color:#1A6DFF"/>
	<stop offset="1" style="stop-color:#C822FF"/>
</linearGradient>
<path style="fill:url(#SVGID_3__44054);" d="M51,10H40.618l-1.171-2.341C38.936,6.636,37.907,6,36.763,6h-9.525  c-1.145,0-2.173,0.636-2.685,1.659L23.382,10H13c-2.757,0-5,2.243-5,5v3h2c1.654,0,3,1.346,3,3v26c0,3.859,3.141,7,7,7h24  c3.859,0,7-3.141,7-7V21c0-1.654,1.346-3,3-3h2v-3C56,12.243,53.757,10,51,10z M26.342,8.554C26.513,8.212,26.855,8,27.237,8h9.525  c0.382,0,0.725,0.212,0.896,0.554L38.382,10H25.618L26.342,8.554z M49,21v26c0,2.757-2.243,5-5,5H20c-2.757,0-5-2.243-5-5V21  c0-1.13-0.391-2.162-1.026-3H19v4h2v-4h4v6h2v-6h4v9h2v-9h4v6h2v-6h4v4h2v-4h5.026C49.391,18.838,49,19.87,49,21z M54,16H10v-1  c0-1.654,1.346-3,3-3h38c1.654,0,3,1.346,3,3V16z"/>
<linearGradient id="SVGID_4__44054" gradientUnits="userSpaceOnUse" x1="32" y1="41.6667" x2="32" y2="59.0008" spreadMethod="reflect">
	<stop offset="0" style="stop-color:#6DC7FF"/>
	<stop offset="1" style="stop-color:#E6ABFF"/>
</linearGradient>
<path style="fill:url(#SVGID_4__44054);" d="M32,42c-2.761,0-5,2.239-5,5v9c0,1.105,0.895,2,2,2h6c1.105,0,2-0.895,2-2v-9  C37,44.239,34.761,42,32,42z"/>
</svg>
